<svg xmlns="http://www.w3.org/2000/svg" width="6.148" height="11.38" viewBox="0 0 6.148 11.38">
  <path id="Path_52" data-name="Path 52" d="M12.2,13.567,8.09,9.019a.946.946,0,0,0-.982-.311,1.066,1.066,0,0,0-.723.8,1.192,1.192,0,0,0,.28,1.086L9.1,13.277c1.128,1.247,1.422.631-.022,2.227l-2.41,2.668a1.2,1.2,0,0,0,.018,1.555.94.94,0,0,0,1.407.019L12.2,15.2a1.167,1.167,0,0,0,.295-.787.194.194,0,0,0,0-.028.215.215,0,0,0,0-.028A1.177,1.177,0,0,0,12.2,13.567Z" transform="translate(-6.352 -8.672)" fill="#fff"/>
</svg>
