<svg xmlns="http://www.w3.org/2000/svg" width="16.973" height="16.973" viewBox="0 0 16.973 16.973"><path d="M11.917,0H5.056A5.062,5.062,0,0,0,0,5.056v6.86a5.062,5.062,0,0,0,5.056,5.056h6.86a5.062,5.062,0,0,0,5.056-5.056V5.056A5.062,5.062,0,0,0,11.917,0Zm3.349,11.917a3.349,3.349,0,0,1-3.349,3.349H5.056a3.349,3.349,0,0,1-3.349-3.349V5.056A3.349,3.349,0,0,1,5.056,1.707h6.86a3.349,3.349,0,0,1,3.349,3.349v6.86Z" fill="#fff"/><path d="M137.39,133a4.39,4.39,0,1,0,4.39,4.39A4.395,4.395,0,0,0,137.39,133Zm0,7.072a2.682,2.682,0,1,1,2.682-2.682A2.682,2.682,0,0,1,137.39,140.072Z" transform="translate(-128.903 -128.903)" fill="#fff"/><ellipse cx="1.052" cy="1.052" rx="1.052" ry="1.052" transform="translate(11.833 3.078)" fill="#fff"/></svg>