<svg xmlns="http://www.w3.org/2000/svg" width="17.803" height="14.468" viewBox="0 0 17.803 14.468"><path d="M17.8,3.961a7.292,7.292,0,0,1-2.1.575,3.659,3.659,0,0,0,1.606-2.021,7.317,7.317,0,0,1-2.32.886A3.655,3.655,0,0,0,8.767,6.732,10.369,10.369,0,0,1,1.24,2.916a3.657,3.657,0,0,0,1.13,4.877A3.637,3.637,0,0,1,.716,7.336a3.655,3.655,0,0,0,2.929,3.627A3.661,3.661,0,0,1,2,11.026a3.655,3.655,0,0,0,3.412,2.536A7.344,7.344,0,0,1,0,15.075a10.34,10.34,0,0,0,5.6,1.641A10.33,10.33,0,0,0,15.981,5.852,7.436,7.436,0,0,0,17.8,3.961Z" transform="translate(0 -2.248)" fill="#fff"/></svg>