<svg xmlns="http://www.w3.org/2000/svg" width="48.394" height="48.394" viewBox="0 0 48.394 48.394">
  <g id="Group_1242" data-name="Group 1242" transform="translate(-258.336 -3345.952)">
    <path id="Path_49" data-name="Path 49" d="M-.924-.592-15.561,7.842a.946.946,0,0,1-1.283-.375.951.951,0,0,1-.116-.457V-9.9a.947.947,0,0,1,.921-.97.946.946,0,0,1,.516.138L-.886-2.256A.946.946,0,0,1-.532-.966a.948.948,0,0,1-.392.374" transform="translate(294.241 3371.725)" fill="#fff"/>
    <g id="Ellipse_18" data-name="Ellipse 18" transform="translate(258.336 3345.952)" fill="none" stroke="#fff" stroke-width="2">
      <circle cx="24.197" cy="24.197" r="24.197" stroke="none"/>
      <circle cx="24.197" cy="24.197" r="23.197" fill="none"/>
    </g>
  </g>
</svg>
