<svg xmlns="http://www.w3.org/2000/svg" width="9.177" height="16.973" viewBox="0 0 9.177 16.973"><path d="M30.908,0l-2.2,0a3.865,3.865,0,0,0-4.071,4.177V6.1H22.423a.346.346,0,0,0-.346.346V9.24a.346.346,0,0,0,.346.346h2.213v7.041a.346.346,0,0,0,.346.346H27.87a.346.346,0,0,0,.346-.346V9.586H30.8a.346.346,0,0,0,.346-.346V6.449A.346.346,0,0,0,30.8,6.1H28.216V4.47c0-.785.187-1.183,1.209-1.183h1.483a.346.346,0,0,0,.346-.346V.35A.346.346,0,0,0,30.908,0Z" transform="translate(-22.077)" fill="#fff"/></svg>